<svg version="1.1" id="Layer_1" xmlns="http://www.w3.org/2000/svg" xmlns:xlink="http://www.w3.org/1999/xlink" x="0px" y="0px"
	 width="100%" viewBox="0 0 1024 1024" enable-background="new 0 0 1024 1024" xml:space="preserve">
<path fill="#030303" opacity="1.000000" stroke="none" 
	d="
M655.000000,1025.000000 
	C436.666656,1025.000000 218.833328,1025.000000 1.000000,1025.000000 
	C1.000000,683.666687 1.000000,342.333344 1.000000,1.000000 
	C342.333344,1.000000 683.666687,1.000000 1025.000000,1.000000 
	C1025.000000,342.333344 1025.000000,683.666687 1025.000000,1025.000000 
	C901.833313,1025.000000 778.666687,1025.000000 655.000000,1025.000000 
M524.733154,787.212341 
	C524.733154,787.212341 524.504700,787.296387 524.743286,787.916321 
	C525.460938,788.983521 526.178528,790.050720 526.927124,791.050842 
	C526.927124,791.050842 526.856201,791.071655 527.043579,791.853027 
	C528.864990,792.521301 530.684814,793.768066 532.508118,793.773010 
	C574.257690,793.886536 616.007568,793.864563 657.757446,793.867920 
	C658.921509,793.867981 660.085571,793.866699 661.249634,793.865967 
	C661.162415,793.136414 661.075195,792.406799 660.997986,791.333252 
	C660.997986,791.333252 660.804138,791.048950 660.657898,790.319946 
	C659.811279,789.162292 658.964722,788.004639 658.113098,786.917358 
	C658.113098,786.917358 658.183594,786.918091 658.057312,786.296265 
	C657.320251,785.059692 656.583191,783.823181 655.826782,782.312134 
	C655.826782,782.312134 655.583679,782.183289 655.253723,781.657654 
	C654.499634,780.439941 653.745605,779.222229 652.815186,777.333313 
	C582.779419,658.895447 512.743713,540.457581 442.448029,421.580109 
	C441.134644,423.658478 440.040894,425.305634 439.029633,427.001953 
	C418.660706,461.169617 398.416565,495.412842 377.802002,529.431580 
	C375.052032,533.969543 375.337372,537.061462 377.887756,541.328430 
	C414.382324,602.385803 450.712921,663.541138 487.119537,724.651062 
	C499.329468,745.145935 511.642181,765.579468 524.013977,786.625305 
	C524.280823,786.897461 524.547668,787.169617 524.733154,787.212341 
M431.387207,383.354919 
	C455.247528,383.187958 479.107819,383.021027 503.771301,382.988373 
	C504.853149,382.943665 505.934998,382.898956 507.495758,382.963776 
	C507.495758,382.963776 507.973877,382.850861 508.906158,382.983917 
	C550.986877,382.983917 593.067566,382.983917 635.371338,382.983917 
	C612.946289,420.571320 590.344788,458.454498 567.937073,496.012909 
	C611.580627,496.012909 654.715820,496.043182 697.850342,495.882416 
	C699.306580,495.877014 701.296814,494.267120 702.128174,492.865387 
	C718.705200,464.916565 734.626404,436.563812 751.780701,408.976990 
	C765.875305,386.310516 771.266541,362.680908 766.177795,336.321228 
	C759.041931,299.357300 732.007141,266.657806 685.424561,266.934631 
	C643.274902,267.185089 601.122559,266.975250 558.971436,267.002350 
	C543.647644,267.012207 528.323853,267.120178 512.072083,267.046295 
	C505.706024,267.113159 499.339966,267.179993 492.337128,267.105957 
	C491.908508,267.158356 491.479919,267.210754 490.117645,267.117096 
	C480.710388,267.254425 471.303131,267.391724 461.321259,267.339539 
	C460.929169,267.407379 460.537109,267.475220 459.229889,267.337311 
	C456.115234,267.418121 453.000549,267.498901 449.507660,267.419342 
	C449.507660,267.419342 449.138184,267.598846 448.205444,267.385345 
	C439.327942,267.576050 430.450470,267.766785 420.934753,267.655670 
	C419.768127,267.755798 418.601532,267.855927 416.604797,267.687317 
	C402.145355,267.764587 387.685974,267.875214 373.226410,267.912598 
	C336.162964,268.008453 299.099457,268.071777 261.355255,268.016785 
	C260.897247,268.060547 260.439270,268.104309 259.198608,268.012604 
	C258.143402,268.056671 257.088226,268.100739 255.120010,268.011078 
	C251.740433,268.055267 248.360855,268.099487 244.163849,268.009277 
	C242.786850,268.054016 241.409851,268.098755 239.101883,268.009033 
	C233.729111,268.054016 228.356339,268.098999 222.336609,268.013275 
	C221.901016,268.057220 221.465408,268.101135 220.230118,268.011475 
	C219.153122,268.057495 218.076141,268.103546 216.337402,268.018280 
	C215.891983,268.062317 215.446579,268.106354 214.181656,268.015320 
	C212.295074,268.015320 210.408493,268.015320 208.568161,268.015320 
	C208.568161,268.760681 208.507339,268.956329 208.576736,269.077393 
	C230.140549,306.698120 251.696304,344.323547 273.371094,381.880249 
	C273.997345,382.965363 275.885681,383.927094 277.186890,383.928802 
	C305.791016,383.965698 334.395355,383.858551 363.927521,383.920654 
	C374.309540,383.788879 384.691528,383.657104 395.491180,383.665253 
	C395.491180,383.665253 395.906860,383.519714 396.734131,383.703430 
	C397.854340,383.624420 398.974518,383.545380 400.491638,383.617859 
	C400.491638,383.617859 400.885284,383.457947 401.732300,383.649078 
	C402.878082,383.553650 404.023895,383.458221 406.058563,383.589874 
	C414.230011,383.405914 422.401489,383.221954 431.387207,383.354919 
z"/>
<path fill="#F95C00" opacity="1.000000" stroke="none" 
	d="
M362.999634,383.778931 
	C334.395355,383.858551 305.791016,383.965698 277.186890,383.928802 
	C275.885681,383.927094 273.997345,382.965363 273.371094,381.880249 
	C251.696304,344.323547 230.140549,306.698120 208.576736,269.077393 
	C208.507339,268.956329 208.568161,268.760681 208.568161,268.015320 
	C210.408493,268.015320 212.295074,268.015320 214.683350,268.282867 
	C215.789749,268.416809 216.394455,268.283173 216.999146,268.149567 
	C218.076141,268.103546 219.153122,268.057495 220.813507,268.184204 
	C221.925797,268.285919 222.454681,268.214935 222.983566,268.143982 
	C228.356339,268.098999 233.729111,268.054016 239.856476,268.229431 
	C242.067810,268.347748 243.524536,268.245697 244.981277,268.143677 
	C248.360855,268.099487 251.740433,268.055267 255.840118,268.224945 
	C257.700562,268.341919 258.840912,268.244995 259.981262,268.148071 
	C260.439270,268.104309 260.897247,268.060547 262.067322,268.250366 
	C264.259308,268.655243 265.739197,268.976074 267.219147,268.976532 
	C347.357849,269.000366 427.496521,269.009094 507.635132,268.921295 
	C509.424072,268.919342 511.211792,267.787933 513.000061,267.183411 
	C528.323853,267.120178 543.647644,267.012207 558.971436,267.002350 
	C601.122559,266.975250 643.274902,267.185089 685.424561,266.934631 
	C732.007141,266.657806 759.041931,299.357300 766.177795,336.321228 
	C771.266541,362.680908 765.875305,386.310516 751.780701,408.976990 
	C734.626404,436.563812 718.705200,464.916565 702.128174,492.865387 
	C701.296814,494.267120 699.306580,495.877014 697.850342,495.882416 
	C654.715820,496.043182 611.580627,496.012909 567.937073,496.012909 
	C590.344788,458.454498 612.946289,420.571320 635.371338,382.983917 
	C593.067566,382.983917 550.986877,382.983917 508.325256,382.861420 
	C507.487183,382.669678 507.244659,382.708130 507.016846,382.854248 
	C505.934998,382.898956 504.853149,382.943665 502.997559,382.753113 
	C501.077667,382.348511 499.931610,382.031677 498.785400,382.030975 
	C455.152100,382.004364 411.518799,381.987640 367.885681,382.080170 
	C366.255798,382.083618 364.628265,383.187714 362.999634,383.778931 
z"/>
<path fill="#F95C00" opacity="1.000000" stroke="none" 
	d="
M660.804138,791.048950 
	C660.804138,791.048950 660.997986,791.333252 660.461426,791.556702 
	C658.763123,791.845215 657.601318,791.966736 656.439514,791.967224 
	C615.203918,791.983154 573.968384,792.000488 532.732849,791.954956 
	C530.773621,791.952759 528.815063,791.379150 526.856201,791.071655 
	C526.856201,791.071655 526.927124,791.050842 526.896484,790.730469 
	C526.078857,789.372131 525.291748,788.334290 524.504700,787.296387 
	C524.504700,787.296387 524.733154,787.212341 524.638428,787.080627 
	C524.331787,786.646301 524.119812,786.343689 523.907898,786.041077 
	C511.642181,765.579468 499.329468,745.145935 487.119537,724.651062 
	C450.712921,663.541138 414.382324,602.385803 377.887756,541.328430 
	C375.337372,537.061462 375.052032,533.969543 377.802002,529.431580 
	C398.416565,495.412842 418.660706,461.169617 439.029633,427.001953 
	C440.040894,425.305634 441.134644,423.658478 442.448029,421.580109 
	C512.743713,540.457581 582.779419,658.895447 652.836670,777.928345 
	C653.766602,779.743408 654.675171,780.963318 655.583679,782.183289 
	C655.583679,782.183289 655.826782,782.312134 655.758057,782.782410 
	C656.520691,784.474487 657.352173,785.696289 658.183594,786.918091 
	C658.183594,786.918091 658.113098,786.917358 658.176758,787.248108 
	C659.094971,788.735535 659.949585,789.892273 660.804138,791.048950 
z"/>
<path fill="#F95C00" opacity="1.000000" stroke="none" 
	d="
M512.536072,267.114868 
	C511.211792,267.787933 509.424072,268.919342 507.635132,268.921295 
	C427.496521,269.009094 347.357849,269.000366 267.219147,268.976532 
	C265.739197,268.976074 264.259308,268.655243 262.407654,268.316010 
	C299.099457,268.071777 336.162964,268.008453 373.226410,267.912598 
	C387.685974,267.875214 402.145355,267.764587 417.539825,267.817017 
	C419.507568,267.950317 420.540253,267.953918 421.572968,267.957520 
	C430.450470,267.766785 439.327942,267.576050 448.764648,267.513489 
	C449.323883,267.641602 449.608215,267.643982 449.608215,267.643982 
	C449.608215,267.643982 449.885895,267.579712 449.885895,267.579712 
	C453.000549,267.498901 456.115234,267.418121 459.858429,267.500031 
	C460.956604,267.618195 461.426239,267.573608 461.895874,267.529053 
	C471.303131,267.391724 480.710388,267.254425 490.767822,267.283142 
	C491.936646,267.381744 492.455292,267.314301 492.973907,267.246826 
	C499.339966,267.179993 505.706024,267.113159 512.536072,267.114868 
z"/>
<path fill="#F95C00" opacity="1.000000" stroke="none" 
	d="
M526.949890,791.462341 
	C528.815063,791.379150 530.773621,791.952759 532.732849,791.954956 
	C573.968384,792.000488 615.203918,791.983154 656.439514,791.967224 
	C657.601318,791.966736 658.763123,791.845215 660.456482,791.728699 
	C661.075195,792.406799 661.162415,793.136414 661.249634,793.865967 
	C660.085571,793.866699 658.921509,793.867981 657.757446,793.867920 
	C616.007568,793.864563 574.257690,793.886536 532.508118,793.773010 
	C530.684814,793.768066 528.864990,792.521301 526.949890,791.462341 
z"/>
<path fill="#F95C00" opacity="1.000000" stroke="none" 
	d="
M363.463562,383.849792 
	C364.628265,383.187714 366.255798,382.083618 367.885681,382.080170 
	C411.518799,381.987640 455.152100,382.004364 498.785400,382.030975 
	C499.931610,382.031677 501.077667,382.348511 502.595947,382.685974 
	C479.107819,383.021027 455.247528,383.187958 430.468994,383.194885 
	C421.423737,383.144135 413.296692,383.253448 405.169678,383.362793 
	C404.023895,383.458221 402.878082,383.553650 401.211304,383.525970 
	C400.486725,383.370422 400.288208,383.391602 400.094727,383.466339 
	C398.974518,383.545380 397.854340,383.624420 396.218323,383.578094 
	C395.486389,383.412689 395.276733,383.436890 395.073547,383.525330 
	C384.691528,383.657104 374.309540,383.788879 363.463562,383.849792 
z"/>
<path fill="#F95C00" opacity="1.000000" stroke="none" 
	d="
M405.614136,383.476318 
	C413.296692,383.253448 421.423737,383.144135 430.061829,383.036438 
	C422.401489,383.221954 414.230011,383.405914 405.614136,383.476318 
z"/>
<path fill="#F95C00" opacity="1.000000" stroke="none" 
	d="
M658.120483,786.607178 
	C657.352173,785.696289 656.520691,784.474487 655.767700,782.919678 
	C656.583191,783.823181 657.320251,785.059692 658.120483,786.607178 
z"/>
<path fill="#F95C00" opacity="1.000000" stroke="none" 
	d="
M655.418701,781.920471 
	C654.675171,780.963318 653.766602,779.743408 652.924805,778.263977 
	C653.745605,779.222229 654.499634,780.439941 655.418701,781.920471 
z"/>
<path fill="#F95C00" opacity="1.000000" stroke="none" 
	d="
M524.624023,787.606323 
	C525.291748,788.334290 526.078857,789.372131 526.881042,790.763977 
	C526.178528,790.050720 525.460938,788.983521 524.624023,787.606323 
z"/>
<path fill="#F95C00" opacity="1.000000" stroke="none" 
	d="
M660.731018,790.684448 
	C659.949585,789.892273 659.094971,788.735535 658.179260,787.212891 
	C658.964722,788.004639 659.811279,789.162292 660.731018,790.684448 
z"/>
<path fill="#F95C00" opacity="1.000000" stroke="none" 
	d="
M244.572571,268.076477 
	C243.524536,268.245697 242.067810,268.347748 240.321960,268.296631 
	C241.409851,268.098755 242.786850,268.054016 244.572571,268.076477 
z"/>
<path fill="#F95C00" opacity="1.000000" stroke="none" 
	d="
M216.668274,268.083923 
	C216.394455,268.283173 215.789749,268.416809 215.093109,268.350403 
	C215.446579,268.106354 215.891983,268.062317 216.668274,268.083923 
z"/>
<path fill="#F95C00" opacity="1.000000" stroke="none" 
	d="
M259.589935,268.080353 
	C258.840912,268.244995 257.700562,268.341919 256.296631,268.291809 
	C257.088226,268.100739 258.143402,268.056671 259.589935,268.080353 
z"/>
<path fill="#F95C00" opacity="1.000000" stroke="none" 
	d="
M421.253845,267.806580 
	C420.540253,267.953918 419.507568,267.950317 417.954895,267.951385 
	C418.601532,267.855927 419.768127,267.755798 421.253845,267.806580 
z"/>
<path fill="#F95C00" opacity="1.000000" stroke="none" 
	d="
M222.660095,268.078613 
	C222.454681,268.214935 221.925797,268.285919 221.213348,268.250977 
	C221.465408,268.101135 221.901016,268.057220 222.660095,268.078613 
z"/>
<path fill="#F95C00" opacity="1.000000" stroke="none" 
	d="
M492.655518,267.176392 
	C492.455292,267.314301 491.936646,267.381744 491.234680,267.356201 
	C491.479919,267.210754 491.908508,267.158356 492.655518,267.176392 
z"/>
<path fill="#F95C00" opacity="1.000000" stroke="none" 
	d="
M461.608582,267.434265 
	C461.426239,267.573608 460.956604,267.618195 460.315979,267.602905 
	C460.537109,267.475220 460.929169,267.407379 461.608582,267.434265 
z"/>
<path fill="#F95C00" opacity="1.000000" stroke="none" 
	d="
M400.293182,383.542114 
	C400.288208,383.391602 400.486725,383.370422 400.787811,383.430420 
	C400.885284,383.457947 400.491638,383.617859 400.293182,383.542114 
z"/>
<path fill="#F95C00" opacity="1.000000" stroke="none" 
	d="
M395.282349,383.595276 
	C395.276733,383.436890 395.486389,383.412689 395.804688,383.486237 
	C395.906860,383.519714 395.491180,383.665253 395.282349,383.595276 
z"/>
<path fill="#F95C00" opacity="1.000000" stroke="none" 
	d="
M507.256287,382.908997 
	C507.244659,382.708130 507.487183,382.669678 507.859131,382.794891 
	C507.973877,382.850861 507.495758,382.963776 507.256287,382.908997 
z"/>
<path fill="#F95C00" opacity="1.000000" stroke="none" 
	d="
M523.960938,786.333191 
	C524.119812,786.343689 524.331787,786.646301 524.679077,787.195312 
	C524.547668,787.169617 524.280823,786.897461 523.960938,786.333191 
z"/>
<path fill="#F95C00" opacity="1.000000" stroke="none" 
	d="
M449.696777,267.499512 
	C449.885895,267.579712 449.608215,267.643982 449.608215,267.643982 
	C449.608215,267.643982 449.323883,267.641602 449.231018,267.620239 
	C449.138184,267.598846 449.507660,267.419342 449.696777,267.499512 
z"/>
</svg>